<svg height="512" viewBox="0 0 512 512" width="512" xmlns="http://www.w3.org/2000/svg"><circle fill="#237A57" cx="400.075" cy="151.721" r="104.431"/><path fill="#093028" d="m504.504 151.72c0 57.681-46.759 104.43-104.43 104.43-20.966 0-40.493-6.176-56.852-16.829 11.882 4.707 24.833 7.285 38.384 7.285 57.672 0 104.43-46.749 104.43-104.43 0-36.715-18.947-69.004-47.598-87.611 38.694 15.29 66.066 53.034 66.066 97.155z"/><path fill="#093028" d="m461.979 486.786h-411.958c-10.682 0-19.341-8.659-19.341-19.341 0-10.682 8.659-19.341 19.341-19.341h411.958c10.682 0 19.341 8.659 19.341 19.341 0 10.681-8.659 19.341-19.341 19.341z"/><path fill="#237A57" d="m481.32 467.449c0 5.336-2.168 10.173-5.666 13.671s-8.335 5.666-13.671 5.666h-19.987c5.336 0 10.173-2.169 13.671-5.666 3.498-3.498 5.666-8.334 5.666-13.671 0-10.683-8.654-19.347-19.337-19.347h19.987c10.682 0 19.337 8.664 19.337 19.347z"/></svg>